<svg aria-hidden="true" style="position: absolute; width: 0; height: 0; overflow: hidden;" version="1.1" xmlns="http://www.w3.org/2000/svg" xmlns:xlink="http://www.w3.org/1999/xlink">
<defs>
<symbol id="icon-chevron-small-right" viewBox="0 0 20 20">
<title>chevron-small-right</title>
<path d="M11 10l-3.141-3.42c-0.268-0.27-0.268-0.707 0-0.978 0.268-0.27 0.701-0.27 0.969 0l3.83 3.908c0.268 0.271 0.268 0.709 0 0.979l-3.83 3.908c-0.267 0.272-0.701 0.27-0.969 0s-0.268-0.707 0-0.978l3.141-3.419z"></path>
</symbol>
<symbol id="icon-dots-three-horizontal" viewBox="0 0 20 20">
<title>dots-three-horizontal</title>
<path d="M10.001 7.8c-1.215 0-2.201 0.985-2.201 2.2s0.986 2.2 2.201 2.2c1.215 0 2.199-0.985 2.199-2.2s-0.984-2.2-2.199-2.2zM3.001 7.8c-1.215 0-2.201 0.985-2.201 2.2s0.986 2.2 2.201 2.2c1.215 0 2.199-0.986 2.199-2.2s-0.984-2.2-2.199-2.2zM17.001 7.8c-1.215 0-2.201 0.985-2.201 2.2s0.986 2.2 2.201 2.2c1.215 0 2.199-0.985 2.199-2.2s-0.984-2.2-2.199-2.2z"></path>
</symbol>
<symbol id="icon-circle" viewBox="0 0 20 20">
<title>circle</title>
<path d="M10 0.4c-5.302 0-9.6 4.298-9.6 9.6s4.298 9.6 9.6 9.6c5.301 0 9.6-4.298 9.6-9.601 0-5.301-4.299-9.599-9.6-9.599zM10 17.599c-4.197 0-7.6-3.402-7.6-7.6s3.402-7.599 7.6-7.599c4.197 0 7.601 3.402 7.601 7.6s-3.404 7.599-7.601 7.599z"></path>
</symbol>
<symbol id="icon-cross" viewBox="0 0 20 20">
<title>cross</title>
<path d="M14.348 14.849c-0.469 0.469-1.229 0.469-1.697 0l-2.651-3.030-2.651 3.029c-0.469 0.469-1.229 0.469-1.697 0-0.469-0.469-0.469-1.229 0-1.697l2.758-3.15-2.759-3.152c-0.469-0.469-0.469-1.228 0-1.697s1.228-0.469 1.697 0l2.652 3.031 2.651-3.031c0.469-0.469 1.228-0.469 1.697 0s0.469 1.229 0 1.697l-2.758 3.152 2.758 3.15c0.469 0.469 0.469 1.229 0 1.698z"></path>
</symbol>
<symbol id="icon-funnel" viewBox="0 0 20 20">
<title>funnel</title>
<path d="M10 1c-4.908 0-8 1.512-8 3.001v2c0 0.918 6 6 6 6v6c-0.001 0.684 1 1 2 1s2.001-0.316 2-1v-6c0 0 6-5.082 6-6v-2c0-1.489-3.092-3.001-8-3.001zM10 6.123c-3.591-0.001-6.138-1.333-6.138-1.831-0.002-0.495 2.548-1.831 6.138-1.829 3.59-0.002 6.14 1.334 6.138 1.828 0 0.499-2.547 1.831-6.138 1.832z"></path>
</symbol>
<symbol id="icon-heart-outlined" viewBox="0 0 20 20">
<title>heart-outlined</title>
<path d="M17.19 4.156c-1.672-1.535-4.383-1.535-6.055 0l-1.135 1.041-1.136-1.041c-1.672-1.535-4.382-1.535-6.054 0-1.881 1.726-1.881 4.519 0 6.245l7.19 6.599 7.19-6.599c1.88-1.726 1.88-4.52 0-6.245zM16.124 9.375l-6.124 5.715-6.125-5.715c-0.617-0.567-0.856-1.307-0.856-2.094s0.138-1.433 0.756-1.999c0.545-0.501 1.278-0.777 2.063-0.777s1.517 0.476 2.062 0.978l2.1 1.825 2.099-1.826c0.546-0.502 1.278-0.978 2.063-0.978s1.518 0.276 2.063 0.777c0.618 0.566 0.755 1.212 0.755 1.999s-0.238 1.528-0.856 2.095z"></path>
</symbol>
<symbol id="icon-login" viewBox="0 0 20 20">
<title>login</title>
<path d="M14 10l-6-5v3h-7v4h7v3l6-5zM17 17h-8v2h8c1.1 0 2-0.9 2-2v-14c0-1.1-0.9-2-2-2h-8v2h8v14z"></path>
</symbol>
<symbol id="icon-magnifying-glass" viewBox="0 0 20 20">
<title>magnifying-glass</title>
<path d="M17.545 15.467l-3.779-3.779c0.57-0.935 0.898-2.035 0.898-3.21 0-3.417-2.961-6.377-6.378-6.377s-6.186 2.769-6.186 6.186c0 3.416 2.961 6.377 6.377 6.377 1.137 0 2.2-0.309 3.115-0.844l3.799 3.801c0.372 0.371 0.975 0.371 1.346 0l0.943-0.943c0.371-0.371 0.236-0.84-0.135-1.211zM4.004 8.287c0-2.366 1.917-4.283 4.282-4.283s4.474 2.107 4.474 4.474c0 2.365-1.918 4.283-4.283 4.283s-4.473-2.109-4.473-4.474z"></path>
</symbol>
<symbol id="icon-paper-plane" viewBox="0 0 20 20">
<title>paper-plane</title>
<path d="M18.64 2.634c-0.344 0.121-17.321 6.104-17.656 6.222-0.284 0.1-0.347 0.345-0.010 0.479 0.401 0.161 3.796 1.521 3.796 1.521v0l2.25 0.901c0 0 10.838-7.958 10.984-8.066 0.148-0.108 0.318 0.095 0.211 0.211s-7.871 8.513-7.871 8.513v0.002l-0.452 0.503 0.599 0.322c0 0 4.65 2.504 4.982 2.682 0.291 0.156 0.668 0.027 0.752-0.334 0.099-0.426 2.845-12.261 2.906-12.525 0.079-0.343-0.148-0.552-0.491-0.431zM7 17.162c0 0.246 0.139 0.315 0.331 0.141 0.251-0.229 2.85-2.561 2.85-2.561l-3.181-1.644v4.064z"></path>
</symbol>
<symbol id="icon-shopping-bag" viewBox="0 0 20 20">
<title>shopping-bag</title>
<path d="M18.121 3.271c-0.295-0.256-1.906-1.731-2.207-1.991-0.299-0.259-0.756-0.28-1.102-0.28h-9.624c-0.345 0-0.802 0.021-1.102 0.28s-1.912 1.736-2.207 1.991c-0.297 0.256-0.543 0.643-0.464 1.192 0.079 0.551 1.89 13.661 1.937 13.973 0.046 0.311 0.318 0.557 0.648 0.564h12c0.33-0.007 0.602-0.253 0.648-0.565s1.858-13.422 1.938-13.973c0.078-0.548-0.168-0.935-0.465-1.191zM10 11.973c-3.248 0-3.943-4.596-4.087-5.543h1.837c0.276 1.381 0.904 3.744 2.25 3.744s1.975-2.363 2.25-3.744h1.838c-0.145 0.947-0.84 5.543-4.088 5.543zM3.17 4.006l1.83-2.006h10l1.83 2.006h-13.66z"></path>
</symbol>
<symbol id="icon-arrow-right2" viewBox="0 0 32 32">
<title>arrow-right2</title>
<path d="M19.414 27.414l10-10c0.781-0.781 0.781-2.047 0-2.828l-10-10c-0.781-0.781-2.047-0.781-2.828 0s-0.781 2.047 0 2.828l6.586 6.586h-19.172c-1.105 0-2 0.895-2 2s0.895 2 2 2h19.172l-6.586 6.586c-0.39 0.39-0.586 0.902-0.586 1.414s0.195 1.024 0.586 1.414c0.781 0.781 2.047 0.781 2.828 0z"></path>
</symbol>
<symbol id="icon-facebook2" viewBox="0 0 32 32">
<title>facebook2</title>
<path d="M29 0h-26c-1.65 0-3 1.35-3 3v26c0 1.65 1.35 3 3 3h13v-14h-4v-4h4v-2c0-3.306 2.694-6 6-6h4v4h-4c-1.1 0-2 0.9-2 2v2h6l-1 4h-5v14h9c1.65 0 3-1.35 3-3v-26c0-1.65-1.35-3-3-3z"></path>
</symbol>
<symbol id="icon-instagram" viewBox="0 0 32 32">
<title>instagram</title>
<path d="M16 2.881c4.275 0 4.781 0.019 6.462 0.094 1.563 0.069 2.406 0.331 2.969 0.55 0.744 0.288 1.281 0.638 1.837 1.194 0.563 0.563 0.906 1.094 1.2 1.838 0.219 0.563 0.481 1.412 0.55 2.969 0.075 1.688 0.094 2.194 0.094 6.463s-0.019 4.781-0.094 6.463c-0.069 1.563-0.331 2.406-0.55 2.969-0.288 0.744-0.637 1.281-1.194 1.837-0.563 0.563-1.094 0.906-1.837 1.2-0.563 0.219-1.413 0.481-2.969 0.55-1.688 0.075-2.194 0.094-6.463 0.094s-4.781-0.019-6.463-0.094c-1.563-0.069-2.406-0.331-2.969-0.55-0.744-0.288-1.281-0.637-1.838-1.194-0.563-0.563-0.906-1.094-1.2-1.837-0.219-0.563-0.481-1.413-0.55-2.969-0.075-1.688-0.094-2.194-0.094-6.463s0.019-4.781 0.094-6.463c0.069-1.563 0.331-2.406 0.55-2.969 0.288-0.744 0.638-1.281 1.194-1.838 0.563-0.563 1.094-0.906 1.838-1.2 0.563-0.219 1.412-0.481 2.969-0.55 1.681-0.075 2.188-0.094 6.463-0.094zM16 0c-4.344 0-4.887 0.019-6.594 0.094-1.7 0.075-2.869 0.35-3.881 0.744-1.056 0.412-1.95 0.956-2.837 1.85-0.894 0.888-1.438 1.781-1.85 2.831-0.394 1.019-0.669 2.181-0.744 3.881-0.075 1.713-0.094 2.256-0.094 6.6s0.019 4.887 0.094 6.594c0.075 1.7 0.35 2.869 0.744 3.881 0.413 1.056 0.956 1.95 1.85 2.837 0.887 0.887 1.781 1.438 2.831 1.844 1.019 0.394 2.181 0.669 3.881 0.744 1.706 0.075 2.25 0.094 6.594 0.094s4.888-0.019 6.594-0.094c1.7-0.075 2.869-0.35 3.881-0.744 1.050-0.406 1.944-0.956 2.831-1.844s1.438-1.781 1.844-2.831c0.394-1.019 0.669-2.181 0.744-3.881 0.075-1.706 0.094-2.25 0.094-6.594s-0.019-4.887-0.094-6.594c-0.075-1.7-0.35-2.869-0.744-3.881-0.394-1.063-0.938-1.956-1.831-2.844-0.887-0.887-1.781-1.438-2.831-1.844-1.019-0.394-2.181-0.669-3.881-0.744-1.712-0.081-2.256-0.1-6.6-0.1v0z"></path>
<path d="M16 7.781c-4.537 0-8.219 3.681-8.219 8.219s3.681 8.219 8.219 8.219 8.219-3.681 8.219-8.219c0-4.537-3.681-8.219-8.219-8.219zM16 21.331c-2.944 0-5.331-2.387-5.331-5.331s2.387-5.331 5.331-5.331c2.944 0 5.331 2.387 5.331 5.331s-2.387 5.331-5.331 5.331z"></path>
<path d="M26.462 7.456c0 1.060-0.859 1.919-1.919 1.919s-1.919-0.859-1.919-1.919c0-1.060 0.859-1.919 1.919-1.919s1.919 0.859 1.919 1.919z"></path>
</symbol>
<symbol id="icon-twitter" viewBox="0 0 32 32">
<title>twitter</title>
<path d="M32 7.075c-1.175 0.525-2.444 0.875-3.769 1.031 1.356-0.813 2.394-2.1 2.887-3.631-1.269 0.75-2.675 1.3-4.169 1.594-1.2-1.275-2.906-2.069-4.794-2.069-3.625 0-6.563 2.938-6.563 6.563 0 0.512 0.056 1.012 0.169 1.494-5.456-0.275-10.294-2.888-13.531-6.862-0.563 0.969-0.887 2.1-0.887 3.3 0 2.275 1.156 4.287 2.919 5.463-1.075-0.031-2.087-0.331-2.975-0.819 0 0.025 0 0.056 0 0.081 0 3.181 2.263 5.838 5.269 6.437-0.55 0.15-1.131 0.231-1.731 0.231-0.425 0-0.831-0.044-1.237-0.119 0.838 2.606 3.263 4.506 6.131 4.563-2.25 1.762-5.075 2.813-8.156 2.813-0.531 0-1.050-0.031-1.569-0.094 2.913 1.869 6.362 2.95 10.069 2.95 12.075 0 18.681-10.006 18.681-18.681 0-0.287-0.006-0.569-0.019-0.85 1.281-0.919 2.394-2.075 3.275-3.394z"></path>
</symbol>
<symbol id="icon-dribbble" viewBox="0 0 32 32">
<title>dribbble</title>
<path d="M16 32c-8.825 0-16-7.175-16-16s7.175-16 16-16c8.825 0 16 7.175 16 16s-7.175 16-16 16v0zM29.494 18.188c-0.469-0.15-4.231-1.269-8.512-0.581 1.788 4.912 2.512 8.912 2.656 9.744 3.063-2.075 5.25-5.356 5.856-9.163v0zM21.337 28.6c-0.206-1.2-0.994-5.375-2.913-10.363-0.031 0.012-0.063 0.019-0.087 0.031-7.713 2.688-10.481 8.031-10.725 8.531 2.319 1.806 5.231 2.887 8.387 2.887 1.894 0 3.7-0.387 5.338-1.087v0zM5.844 25.156c0.313-0.531 4.063-6.738 11.106-9.019 0.175-0.056 0.356-0.113 0.538-0.162-0.344-0.775-0.719-1.556-1.106-2.319-6.819 2.044-13.444 1.956-14.044 1.95-0.006 0.137-0.006 0.275-0.006 0.419 0 3.506 1.331 6.712 3.512 9.131v0zM2.625 13.219c0.612 0.006 6.244 0.031 12.637-1.662-2.262-4.025-4.706-7.412-5.069-7.906-3.825 1.806-6.688 5.331-7.569 9.569v0zM12.8 2.731c0.375 0.506 2.863 3.888 5.1 8 4.863-1.819 6.919-4.588 7.163-4.938-2.413-2.144-5.587-3.444-9.063-3.444-1.1 0.006-2.175 0.138-3.2 0.381v0zM26.581 7.381c-0.288 0.388-2.581 3.325-7.631 5.388 0.319 0.65 0.625 1.313 0.906 1.981 0.1 0.238 0.2 0.469 0.294 0.706 4.55-0.569 9.069 0.344 9.519 0.438-0.031-3.225-1.188-6.188-3.087-8.512v0z"></path>
</symbol>
</defs>
</svg>
